<?xml version="1.0" encoding="utf-8"?>
<!-- Generator: Adobe Illustrator 16.0.0, SVG Export Plug-In . SVG Version: 6.00 Build 0)  -->
<!DOCTYPE svg PUBLIC "-//W3C//DTD SVG 1.1//EN" "http://www.w3.org/Graphics/SVG/1.1/DTD/svg11.dtd">
<svg version="1.1" id="Layer_1" xmlns="http://www.w3.org/2000/svg" xmlns:xlink="http://www.w3.org/1999/xlink" x="0px" y="0px"
	 width="13.234px" height="11.417px" viewBox="0 0 13.234 11.417" enable-background="new 0 0 13.234 11.417" xml:space="preserve">
<g id="_x39_Aj4Fx.tif">
</g>
<g>
	<path fill="#FFFFFF" d="M6.611,6.513l4.39-3.81c-0.028-0.01-0.06-0.02-0.09-0.02h-8.6c-0.021,0-0.03,0.01-0.05,0.01L6.611,6.513z"
		/>
	<path fill="#FFFFFF" d="M11.531,3.283c0-0.07-0.02-0.14-0.05-0.2l-3.09,2.69l3.05,2.641c0.05-0.09,0.09-0.181,0.09-0.291V3.283z"/>
	<path fill="#FFFFFF" d="M1.751,3.053c-0.028,0.07-0.05,0.15-0.05,0.23v4.839c0,0.09,0.021,0.17,0.05,0.25l3.09-2.609L1.751,3.053z"
		/>
	<path fill="#FFFFFF" d="M7.921,6.183l-1.31,1.141L5.301,6.173l-3.02,2.55c0.01,0,0.02,0.01,0.03,0.01h8.568L7.921,6.183z"/>
</g>
</svg>
