<?xml version="1.0" encoding="utf-8"?>
<!-- Generator: Adobe Illustrator 16.0.0, SVG Export Plug-In . SVG Version: 6.00 Build 0)  -->
<!DOCTYPE svg PUBLIC "-//W3C//DTD SVG 1.1//EN" "http://www.w3.org/Graphics/SVG/1.1/DTD/svg11.dtd">
<svg version="1.1" id="Layer_1" xmlns="http://www.w3.org/2000/svg" xmlns:xlink="http://www.w3.org/1999/xlink" x="0px" y="0px"
	 width="144px" height="144px" viewBox="0 0 144 144" enable-background="new 0 0 144 144" xml:space="preserve">
<circle fill="#454545" cx="71.126" cy="72" r="59.188"/>
<circle fill="#FFFFFF" cx="104.278" cy="54.917" r="10.583"/>
<g id="_x39_Aj4Fx.tif">
</g>
<g>
	<g>
		<polygon fill="#32190E" points="24.947,98.631 24.947,104.376 132.098,115.727 132.617,30.678 111.822,30.678 111.822,94.154 
			104.956,94.154 104.956,85.052 96.792,85.052 96.792,71.157 75.262,71.157 75.262,94.959 66.06,94.959 66.06,59.247 
			58.385,42.025 50.941,59.161 50.941,92.238 40.543,92.238 40.543,69.875 24.947,69.875 		"/>
	</g>
</g>
<g>
	<g>
		<polygon fill="#A33922" points="105.445,111.706 105.445,119.122 20.411,119.122 20.411,105.514 9.841,105.514 9.841,62.43 
			28.303,62.43 28.303,105.934 34.408,105.934 34.408,94.182 41.651,94.182 41.651,76.24 60.775,76.24 60.775,106.954 
			68.941,106.954 68.941,60.889 75.604,52.537 82.374,60.774 82.374,103.456 91.605,103.456 91.605,74.598 105.445,74.598 		"/>
	</g>
</g>
<rect x="64.5" y="83.167" fill="#FFFFFF" width="18.833" height="24.833"/>
<rect x="105.445" y="83.167" fill="#FFFFFF" width="18.833" height="24.833"/>
<rect x="37.833" y="83.167" fill="#FFFFFF" width="10.833" height="24.833"/>
<rect x="10.656" y="80.428" fill="#FFFFFF" width="13.223" height="30.312"/>
<g>
	<path fill="#F16824" d="M7.942,115.982v7.112h128.117v-13.047h-9.414V57.893h-22.931v52.546h-7.573V99.18h-9V81.998H63.394v29.436
		H53.271V67.284l-8.294-8.007l-8.395,7.905v40.896H25.12V80.416H7.942V115.982z M22.11,103.932h-1.47v-2.938h1.47V103.932z
		 M17.749,103.932H16.28v-2.938h1.469V103.932z M13.11,103.932h-1.47v-2.938h1.47V103.932z M22.11,96.414h-1.47v-2.922h1.47V96.414z
		 M17.749,96.414H16.28v-2.922h1.469V96.414z M13.11,96.414h-1.47v-2.922h1.47V96.414z M22.11,87.688h-1.47v-2.922h1.47V87.688z
		 M17.749,87.688H16.28v-2.922h1.469V87.688z M13.11,87.688h-1.47v-2.922h1.47V87.688z M122.598,107.445h-2.162v-4.276h2.162
		V107.445z M116.215,107.445h-2.16v-4.276h2.16V107.445z M109.443,107.445h-2.158v-4.276h2.158V107.445z M122.598,97.379h-2.162
		v-4.291h2.162V97.379z M116.215,97.379h-2.16v-4.291h2.16V97.379z M109.443,97.379h-2.158v-4.291h2.158V97.379z M122.598,88.091
		h-2.162v-4.276h2.162V88.091z M116.215,88.091h-2.16v-4.276h2.16V88.091z M109.443,88.091h-2.158v-4.276h2.158V88.091z
		 M81.943,105.083h-2.16v-4.292h2.16V105.083z M75.564,105.083h-2.158v-4.292h2.158V105.083z M68.795,105.083h-2.16v-4.292h2.16
		V105.083z M81.943,97.178h-2.16V92.9h2.16V97.178z M75.564,97.178h-2.158V92.9h2.158V97.178z M68.795,97.178h-2.16V92.9h2.16
		V97.178z M81.943,89.475h-2.16v-4.276h2.16V89.475z M75.564,89.475h-2.158v-4.276h2.158V89.475z M68.795,89.475h-2.16v-4.276h2.16
		V89.475z M45.511,97.925h-2.794v-5.528h2.794V97.925z M41.119,97.925h-2.792v-5.528h2.792V97.925z"/>
</g>
</svg>
