<?xml version="1.0" encoding="utf-8"?>
<!-- Generator: Adobe Illustrator 16.0.0, SVG Export Plug-In . SVG Version: 6.00 Build 0)  -->
<!DOCTYPE svg PUBLIC "-//W3C//DTD SVG 1.1//EN" "http://www.w3.org/Graphics/SVG/1.1/DTD/svg11.dtd">
<svg version="1.1" id="Layer_1" xmlns="http://www.w3.org/2000/svg" xmlns:xlink="http://www.w3.org/1999/xlink" x="0px" y="0px"
	 width="144px" height="144px" viewBox="0 0 144 144" enable-background="new 0 0 144 144" xml:space="preserve">
<circle fill="#454545" cx="72" cy="72" r="59.188"/>
<g id="_x39_Aj4Fx.tif">
</g>
<g>
	<path fill="#A33922" d="M76.246,30.168c-24.394,0-35.511,5.244-35.971,5.457l-1.052,0.507l-0.056,1.181
		c-0.032,0.562-0.707,13.951,0.185,20.389l0.158,1.168c0.521,4.231,1.614,13.032,6.512,23.603
		c6.047,13.062,15.867,24.394,29.16,33.652l1.135,0.777l1.125-0.777c13.305-9.26,23.129-20.592,29.176-33.652
		c4.895-10.57,5.975-19.369,6.508-23.603l0.146-1.168c0.895-6.438,0.213-19.828,0.188-20.389l-0.061-1.181l-1.049-0.507
		c-0.457-0.213-11.562-5.457-35.972-5.457H76.246L76.246,30.168z"/>
	<g>
		<path fill="#F16823" d="M74.545,32.574c-19.022,0-29.647,3.255-33.336,4.663l-0.26,0.089v0.271
			c-0.087,1.875-0.215,5.559-0.215,9.36c0,4.003,0.145,7.084,0.432,9.115l0.16,1.226c0.488,4.06,1.539,12.486,6.205,22.55
			c5.602,12.096,14.629,22.666,26.842,31.422l0.246,0.157l0.23-0.157c12.207-8.756,21.252-19.326,26.854-31.422
			c4.65-10.062,5.703-18.49,6.207-22.55l0.146-1.226c0.286-2.031,0.434-5.098,0.434-9.115c0-3.802-0.133-7.502-0.203-9.36
			l-0.018-0.271l-0.258-0.089c-3.688-1.408-14.304-4.663-33.335-4.663H74.545z"/>
	</g>
</g>
<path fill="#32190E" d="M12.812,83.449c0-11.575,9.405-20.967,20.979-20.967c11.595,0,20.981,9.392,20.981,20.967
	c0,11.595-9.39,20.98-20.981,20.98C22.217,104.43,12.812,95.042,12.812,83.449z"/>
<path fill="#32190E" d="M84.812,84.586c0-11.271,9.146-20.403,20.42-20.403c11.261,0,20.404,9.131,20.404,20.403
	c0,11.273-9.146,20.407-20.404,20.407C93.957,104.993,84.812,95.859,84.812,84.586z"/>
<path fill="#FFFFFF" d="M102.973,97.389c-7.518,0-13.854-5.099-15.625-11.979l13.135-1.943c0.59,0.722,1.48,1.195,2.49,1.195
	c1.771,0,3.209-1.412,3.209-3.154c0-1.741-1.438-3.151-3.209-3.151c-0.16,0-0.33,0.016-0.494,0.041L94.143,68.23
	c2.535-1.655,5.57-2.62,8.83-2.62c8.898,0,16.125,7.128,16.125,15.897C119.102,90.261,111.871,97.389,102.973,97.389z
	 M86.871,82.283c-0.014-0.26-0.014-0.521-0.014-0.777c0-4.422,1.83-8.408,4.793-11.304l8.326,10.151L86.871,82.283z M75.654,83.939
	c-0.174-0.449-0.418-0.865-0.719-1.238l8.938-21.976l5.086,6.192c-3.92,3.671-6.381,8.841-6.381,14.587
	c0,0.475,0.028,0.938,0.058,1.411L75.654,83.939z M80.881,59.617L72.17,81.059c-0.289-0.059-0.574-0.088-0.863-0.088l-0.102,0.016
	l-0.115-3.185l1.771,0.175c0.145,0.015,0.272-0.1,0.287-0.246l0.145-1.438c0.016-0.144-0.102-0.271-0.246-0.289l-5.428-0.504
	c-0.156-0.015-0.287,0.088-0.304,0.231l-0.129,1.438c-0.015,0.145,0.086,0.271,0.229,0.289l2.059,0.188l0.146,3.641l-0.031,0.02
	L50.815,60.799l0.892-2.579L80.881,59.617z M50.471,81.505c0,8.756-7.229,15.884-16.131,15.884c-8.883,0-16.125-7.128-16.125-15.884
	c0-8.771,7.242-15.897,16.125-15.897c3.341,0,6.451,1.008,9.031,2.736c-2.648,4.046-5.802,7.747-8.427,10.062
	c-0.2-0.041-0.401-0.057-0.604-0.057c-1.769,0-3.194,1.41-3.194,3.151c0,1.742,1.426,3.153,3.194,3.153
	c1.771,0,3.199-1.411,3.199-3.153c0-0.358-0.058-0.688-0.158-1.008c2.838-2.562,5.89-6.25,8.469-10.121
	C48.697,73.238,50.471,77.17,50.471,81.505z M102.973,61.417c-4.277,0-8.25,1.296-11.535,3.527L85.23,57.37l1.627-3.975h0.968
	c2.403,0,6.004-2.16,5.873-3.616c-0.042-0.432-3.558-0.877-7.474-0.72c-5.457,0.229-11.317,1.267-11.317,1.771
	c0,0.992,2.596,1.973,4.926,2.303c0.834,0.116,2.158,0.188,3.601,0.217l-1.293,3.169l-29.364-1.396l3.037-8.726l7.43,0.302
	l0.131-3.154l-8.608-0.343c-0.706-0.031-1.354,0.401-1.586,1.063c-4.276,12.257-5.472,15.696-5.816,16.808h-0.016
	c-0.505,1.192-1.108,2.432-1.784,3.655c-3.212-2.103-7.07-3.312-11.221-3.312c-11.258,0-20.391,8.986-20.391,20.088
	c0,11.089,9.133,20.089,20.391,20.089c11.262,0,20.392-9,20.392-20.089c0-5.875-2.549-11.146-6.625-14.818
	c0.507-0.893,0.966-1.768,1.386-2.635l17.709,19.34c-0.358,0.647-0.56,1.397-0.56,2.188c0,2.305,1.726,4.205,3.974,4.537
	l0.131,3.396l-1.857-0.188c-0.158-0.014-0.287,0.102-0.303,0.246l-0.131,1.426c-0.014,0.145,0.086,0.273,0.231,0.287l5.44,0.517
	c0.145,0.017,0.271-0.085,0.289-0.228l0.146-1.439c0.015-0.146-0.104-0.273-0.244-0.287l-1.975-0.188l-0.132-3.571
	c1.615-0.316,2.926-1.454,3.473-2.967l7.431-1.098c2.088,8.914,10.182,15.569,19.858,15.569c11.273,0,20.4-9,20.4-20.09
	C123.375,70.404,114.248,61.417,102.973,61.417z"/>
</svg>
