<?xml version="1.0" encoding="utf-8"?>
<!-- Generator: Adobe Illustrator 16.0.0, SVG Export Plug-In . SVG Version: 6.00 Build 0)  -->
<!DOCTYPE svg PUBLIC "-//W3C//DTD SVG 1.1//EN" "http://www.w3.org/Graphics/SVG/1.1/DTD/svg11.dtd">
<svg version="1.1" id="Layer_1" xmlns="http://www.w3.org/2000/svg" xmlns:xlink="http://www.w3.org/1999/xlink" x="0px" y="0px"
	 width="16.167px" height="17.277px" viewBox="0 0 16.167 17.277" enable-background="new 0 0 16.167 17.277" xml:space="preserve">
<g id="_x39_Aj4Fx.tif">
</g>
<g>
	<path fill="#4D4D4D" d="M13.054,8.644h-0.79v-0.79h0.79V8.644z M13.054,10.214h-0.79v-0.78h0.79V10.214z M13.054,11.794h-0.79
		v-0.79h0.79V11.794z M13.054,13.374h-0.79v-0.79h0.79V13.374z M11.474,8.644h-0.79v-0.79h0.79V8.644z M11.474,10.214h-0.79v-0.78
		h0.79V10.214z M11.474,11.794h-0.79v-0.79h0.79V11.794z M11.474,13.374h-0.79v-0.79h0.79V13.374z M9.894,6.274v8.67h3.939v-8.67
		H9.894z"/>
	<path fill="#4D4D4D" d="M7.535,10.214h-0.79v-0.78h0.79V10.214z M7.535,11.794h-0.79v-0.79h0.79V11.794z M7.535,13.374h-0.79v-0.79
		h0.79V13.374z M5.955,7.064h0.79v0.79h-0.79V7.064z M5.955,10.214h-0.79v-0.78h0.79V10.214z M5.955,11.794h-0.79v-0.79h0.79V11.794
		z M5.955,13.374h-0.79v-0.79h0.79V13.374z M4.384,7.064h0.78v0.79h-0.78V7.064z M4.384,10.214h-0.79v-0.78h0.79V10.214z
		 M4.384,11.794h-0.79v-0.79h0.79V11.794z M4.384,13.374h-0.79v-0.79h0.79V13.374z M4.384,5.494h0.78v0.779h-0.78V5.494z
		 M5.955,5.494h0.79v0.779h-0.79V5.494z M8.325,7.854h-0.79V5.494l-0.79-1.58h-0.79v-1.58h-0.79v1.58h-0.78l-0.79,1.58v2.359h-0.79
		l-0.79,0.79v6.3h7.102v-6.3L8.325,7.854z"/>
</g>
</svg>
