<?xml version="1.0" encoding="utf-8"?>
<!-- Generator: Adobe Illustrator 16.0.0, SVG Export Plug-In . SVG Version: 6.00 Build 0)  -->
<!DOCTYPE svg PUBLIC "-//W3C//DTD SVG 1.1//EN" "http://www.w3.org/Graphics/SVG/1.1/DTD/svg11.dtd">
<svg version="1.1" id="Layer_1" xmlns="http://www.w3.org/2000/svg" xmlns:xlink="http://www.w3.org/1999/xlink" x="0px" y="0px"
	 width="36px" height="36px" viewBox="0 0 36 36" enable-background="new 0 0 36 36" xml:space="preserve">
<symbol  id="New_Symbol_46" viewBox="-7.5 -8 15 16">
	<polygon fill="#010101" points="-0.5,0 -2.5,0 -2.5,2 -0.5,2 	"/>
	<polygon fill="#010101" points="2.5,0 0.5,0 0.5,2 2.5,2 	"/>
	<polygon fill="#010101" points="5.5,0 3.5,0 3.5,2 5.5,2 	"/>
	<polygon fill="#010101" points="-3.5,-3 -5.5,-3 -5.5,-1 -3.5,-1 	"/>
	<polygon fill="#010101" points="-0.5,-3 -2.5,-3 -2.5,-1 -0.5,-1 	"/>
	<polygon fill="#010101" points="2.5,-3 0.5,-3 0.5,-1 2.5,-1 	"/>
	<polygon fill="#010101" points="5.5,-3 3.5,-3 3.5,-1 5.5,-1 	"/>
	<polygon fill="#010101" points="-3.5,-6 -5.5,-6 -5.5,-4 -3.5,-4 	"/>
	<polygon fill="#010101" points="-0.5,-6 -2.5,-6 -2.5,-4 -0.5,-4 	"/>
	<polygon fill="#010101" points="2.5,-6 0.5,-6 0.5,-4 2.5,-4 	"/>
	<path fill="#010101" d="M5.5,6v2h-3V6h-5v2h-3V6h-2V-8h15V6H5.5z M3.5,7h1V5h-1V7z M-4.5,7h1V5h-1V7z M6.5-7h-13V3h13V-7z"/>
</symbol>
<use xlink:href="#New_Symbol_46"  width="15" height="16" x="-7.5" y="-8" transform="matrix(1.3136 0 0 -1.3136 17.9531 17.4121)" overflow="visible"/>
</svg>
