<?xml version="1.0" encoding="utf-8"?>
<!-- Generator: Adobe Illustrator 16.0.0, SVG Export Plug-In . SVG Version: 6.00 Build 0)  -->
<!DOCTYPE svg PUBLIC "-//W3C//DTD SVG 1.1//EN" "http://www.w3.org/Graphics/SVG/1.1/DTD/svg11.dtd">
<svg version="1.1" id="Layer_1" xmlns="http://www.w3.org/2000/svg" xmlns:xlink="http://www.w3.org/1999/xlink" x="0px" y="0px"
	 width="144px" height="144px" viewBox="0 0 144 144" enable-background="new 0 0 144 144" xml:space="preserve">
<circle fill="#454545" cx="74.411" cy="73.686" r="59.188"/>
<g id="_x39_Aj4Fx.tif">
</g>
<g>
	<path d="M74.699,78.441c-1.99-2.894-8.679-4.697-15.302-7.271c-6.622-2.57-8.191-3.462-8.191-3.462l-0.062-5.932
		c0,0,2.481-1.77,3.251-7.344c1.553,0.419,3.181-2.166,3.268-3.517c0.088-1.312-0.213-4.946-2.106-4.573
		c0.388-2.733,0.666-5.194,0.533-6.498c-0.496-4.751-5.52-9.778-13.245-9.778c-7.725,0-12.75,5.027-13.241,9.778
		c-0.137,1.304,0.143,3.765,0.529,6.498c-1.895-0.373-2.193,3.26-2.106,4.573c0.087,1.351,1.715,3.936,3.268,3.517
		c0.771,5.575,3.251,7.344,3.251,7.344l-0.062,5.932c0,0-1.569,0.893-8.191,3.462c-6.623,2.574-13.312,4.379-15.303,7.271
		c-1.788,2.596-1.25,15.057-1.25,15.057h33.104h33.104C75.947,93.498,76.484,81.037,74.699,78.441z"/>
	
		<ellipse fill="#FFFFFF" stroke="#231F20" stroke-width="2" stroke-miterlimit="10" cx="42.913" cy="45.654" rx="15.856" ry="21.16"/>
	<path fill="#FFFFFF" d="M42.853,36.687c7.842,0,14.406,4.56,17.002,10.687c0.439-1.77,0.798-3.84,0.798-5.781
		c0-10.786-7.296-19.53-16.295-19.53H41.24c-8.999,0-16.647,8.78-16.647,19.566c0,1.641,0.517,3.551,1.069,5.708
		C28.208,41.125,34.944,36.687,42.853,36.687z"/>
	<path fill="#A23A22" d="M42.749,35.979c7.949,0,14.727,4.152,17.357,9.983c0.446-1.685,0.687-3.468,0.687-5.315
		c0-10.264-7.396-18.584-16.52-18.584h-3.16c-9.124,0-16.521,8.321-16.521,18.584c0,1.903,0.256,3.738,0.728,5.466
		C27.901,40.203,34.729,35.979,42.749,35.979z"/>
	<path fill="#FFFFFF" d="M42.667,36.925c4.017,0,7.726,1.151,10.723,3.098c-0.426-10.061-4.633-17.96-9.76-17.96h-1.875
		c-5.121,0-9.324,7.882-9.759,17.927C34.985,38.064,38.674,36.925,42.667,36.925z"/>
	<path d="M42.667,45.929c6.201,0,12.048,0.522,17.188,1.444c-2.316-6.041-9.136-10.417-17.188-10.417
		c-8.052,0-14.871,4.376-17.188,10.417C30.62,46.452,36.465,45.929,42.667,45.929z"/>
	<line fill="none" stroke="#F16823" stroke-miterlimit="10" x1="42.667" y1="22.848" x2="42.667" y2="35.615"/>
	<g>
		<path fill="#FFFFFF" d="M44.162,40.184c-0.03,0.154-0.341,0.03-0.485,0.069C43.734,40.108,44.042,40.063,44.162,40.184z"/>
		<path fill="#FFFFFF" d="M43.984,38.946c-0.254-0.184-0.609-0.45-0.986-0.535c0.111-0.021,0.22-0.03,0.332-0.015
			c0.292,0.036,0.346,0.411,0.624,0.275c-0.241-0.063-0.374-0.235-0.525-0.387c0.456,0.112,0.81,0.326,1.042,0.661
			c0.217-0.103,0.229-0.413,0.205-0.757c0.054-0.084,0.153-0.03,0.208-0.07c0.449,0.253,0.16,0.845,0.208,1.307
			c0.055,0.537,0.465,1.135,0.069,1.584c-0.069-0.16-0.238-0.224-0.485-0.208c0.039-0.129-0.019-0.166-0.052-0.226
			c-0.016-0.03-0.027-0.063-0.019-0.118c0.024-0.16,0.332-0.039,0.278-0.274c-0.172-0.157-0.224-0.537-0.553-0.344
			c0.142-0.767-1.337-0.474-0.902-1.102C43.591,38.826,43.791,39.103,43.984,38.946z"/>
		<path fill="#FFFFFF" d="M43.428,38.285c-0.132-0.033-0.277-0.06-0.431-0.075c0.108-0.009,0.217-0.018,0.332-0.021
			C43.366,38.219,43.399,38.252,43.428,38.285z"/>
		<path fill="#FFFFFF" d="M42.565,38.285c0.033-0.033,0.067-0.066,0.101-0.096c0.114,0.003,0.226,0.012,0.332,0.021
			C42.846,38.225,42.702,38.252,42.565,38.285z"/>
		<path fill="#4D4E4E" d="M42.716,40.069c0.151,0.323-0.86,0.516-0.98,0.115c0.12-0.525,0.905-0.313,1.177-0.414
			C42.855,39.831,42.81,40.217,42.716,40.069z M42.716,40.069l-0.004-0.009L42.716,40.069z"/>
		<path fill="#4D4E4E" d="M42.716,40.069l-0.004-0.009L42.716,40.069z"/>
		<path fill="#FFFFFF" d="M42.666,38.397c-0.293,0.036-0.347,0.407-0.622,0.275c0.241-0.063,0.373-0.235,0.521-0.387l0,0l0,0
			c0.136-0.033,0.281-0.06,0.433-0.075c0.153,0.015,0.298,0.042,0.431,0.075c0.151,0.151,0.284,0.323,0.525,0.387
			c-0.278,0.136-0.332-0.239-0.624-0.275c-0.112-0.015-0.221-0.006-0.332,0.015C42.888,38.391,42.777,38.382,42.666,38.397z"/>
		<path fill="#FFFFFF" d="M43.399,46.307c-0.876,0.097-1.983-0.226-2.97-0.139c0.09-0.845-0.223-1.762-0.19-2.321
			c0.378,0.061,0.637,0.538,1.219,0.396c0.203-0.333,0.148-1.277,0.139-1.582c0.312-0.055,0.963,0.142,1.111,0.479
			c0.558-0.009,0.908,0.054,0.969,0.344c0.052,0.238-0.775,0.643-0.417,1.032c0.221-0.422,0.284-1.005,0.902-1.032
			c0.003,0.362,0.019,0.715,0.278,0.827c0.009-0.214-0.181-0.77,0.283-0.84c0,0.116,0.019,0.191,0.094,0.396
			c0.079,0.03,0.151,0.063,0.214,0.109c-0.039,0-0.081,0-0.12,0c0.172,0.353,0.374,0.712,0.555,1.276
			c-1.557-0.31-3.062-0.144-4.494-0.138c0.261,0.274,0.653,0.104,1.051,0.084c1.308-0.063,1.995-0.021,2.9,0.054
			c0.16,0.016,0.456,0.185,0.549,0.013c0.085,0.265,0.164,0.576,0.233,0.95c-0.469-0.193-0.788-0.292-1.265-0.253
			C44.05,45.993,43.751,46.268,43.399,46.307z M42.982,44.378c-0.181-0.434-0.389-0.848-0.899-0.962
			c0.019,0.235,0.312,0.196,0.417,0.347C42.641,43.986,42.699,44.297,42.982,44.378z"/>
		<path fill="#FFFFFF" d="M40.833,41.011c-0.393-0.45,0.018-1.047,0.072-1.584c0.045-0.462-0.242-1.054,0.205-1.307
			c0.097-0.033,0.172,0,0.209,0.07c-0.022,0.344-0.013,0.655,0.207,0.757c0.233-0.335,0.583-0.549,1.038-0.661
			c-0.148,0.151-0.28,0.323-0.521,0.387c0.274,0.132,0.329-0.239,0.622-0.275c0.111-0.015,0.223-0.006,0.332,0.015
			c-0.374,0.085-0.734,0.351-0.984,0.535c0.193,0.157,0.39-0.121,0.556-0.208c0.435,0.627-1.045,0.335-0.903,1.102
			c-0.328-0.193-0.383,0.187-0.555,0.344c-0.051,0.235,0.256,0.115,0.278,0.274c0.03,0.166-0.127,0.151-0.069,0.344
			C41.074,40.787,40.906,40.851,40.833,41.011z"/>
		<path fill="#4D4E4E" d="M42.083,43.416c0.51,0.115,0.719,0.528,0.899,0.962c-0.283-0.081-0.341-0.392-0.483-0.616
			C42.394,43.612,42.101,43.651,42.083,43.416z"/>
		<path fill="#FFFFFF" d="M41.736,42.248c-0.459-0.622-0.269-1.675,0.006-2.378c0.043-0.112,0.088-0.215,0.133-0.305
			c0.28-0.018,0.471-0.13,0.694-0.206c0.374,0.063,0.19,0.393,0.694,0.33c-0.076,0.47,0.018,1.273-0.42,1.183
			c-0.202-0.058,0.043-0.22,0-0.344c-0.254-0.024-0.208,0.25-0.274,0.413c0.012,0.058-0.024,0.094,0.068,0.139
			c0.408-0.187,0.644,0.042,1.108,0.136c0.055-0.398-0.263-0.425-0.209-0.824c0.326,0.139,0.713-0.127,0.903,0.205
			c-0.082,0.594-0.175,0.821-0.278,1.446c-0.407,0.652-1.759,0.235-2.426,0.479C41.563,42.514,41.714,42.29,41.736,42.248z
			 M42.913,39.77c-0.271,0.1-1.057-0.112-1.177,0.414c0.12,0.401,1.132,0.208,0.98-0.115C42.81,40.217,42.855,39.831,42.913,39.77z"
			/>
		<path fill="#FFFFFF" d="M43.263,38.913c0,0.118-0.109,0.211-0.245,0.211c-0.137,0-0.247-0.094-0.247-0.211
			c0-0.115,0.111-0.211,0.247-0.211C43.154,38.702,43.263,38.798,43.263,38.913z"/>
		
			<polygon fill="#FFFFFF" stroke="#FFFFFF" stroke-width="0.3937" stroke-linecap="round" stroke-linejoin="round" stroke-miterlimit="10" points="
			45.133,43.715 44.706,43.166 44.706,41.143 44.937,41.143 		"/>
		
			<polygon fill="#FFFFFF" stroke="#FFFFFF" stroke-width="0.3937" stroke-linecap="round" stroke-linejoin="round" stroke-miterlimit="10" points="
			40.77,43.715 41.198,43.166 41.198,41.143 40.965,41.143 		"/>
		
			<polyline fill="#FFFFFF" stroke="#FFFFFF" stroke-width="0.3937" stroke-linecap="round" stroke-linejoin="round" stroke-miterlimit="10" points="
			43.199,39.773 43.257,40.778 42.843,40.766 		"/>
		<path fill="#4D4E4E" d="M41.208,39.652c0,0,0.172-0.244,0.271-0.317c0.097-0.076,0.296-0.051,0.147,0.073
			C41.479,39.529,41.208,39.652,41.208,39.652z"/>
		<path fill="#4D4E4E" d="M44.829,39.652c0,0-0.172-0.244-0.271-0.317c-0.101-0.076-0.296-0.051-0.148,0.073
			C44.557,39.529,44.829,39.652,44.829,39.652z"/>
		<path fill="#4D4E4E" d="M41.832,40.987c0,0-0.051,0.522,0.049,0.6c0.1,0.085,0.196,0.115,0.163,0.034
			C42.01,41.539,41.832,40.987,41.832,40.987z"/>
		<path fill="#4D4E4E" d="M41.15,39.824c0,0,0.016-0.362,0.069-0.507c0.054-0.142,0.277-0.262,0.205-0.036
			C41.352,39.508,41.15,39.824,41.15,39.824z"/>
		<path fill="#4D4E4E" d="M44.859,39.752c0,0-0.015-0.365-0.069-0.507s-0.28-0.263-0.208-0.037
			C44.657,39.435,44.859,39.752,44.859,39.752z"/>
		<path fill="#FFFFFF" d="M42.499,40.253h-0.485C42.029,40.138,42.529,39.979,42.499,40.253z"/>
		<path fill="#4D4E4E" d="M43.815,41.629c-0.456-0.211-1.014-0.084-1.386,0c-0.013-0.304,0.306-0.223,0.613-0.274
			c0.075-0.012,0.147-0.033,0.217-0.069C43.38,41.463,43.833,41.312,43.815,41.629z"/>
		<path fill="#4D4E4E" d="M43.815,41.974c-0.227,0.051-0.8-0.203-1.178,0v-0.206C42.891,41.72,43.875,41.484,43.815,41.974z"/>
		<path fill="#4D4E4E" d="M42.735,41.388c0,0,0.195-0.048,0.231-0.063c0.013-0.006,0.016-0.006,0.019-0.006
			c0.007,0,0.013,0.011,0.082,0.026c0.163,0.028-0.03,0.04-0.03,0.04L42.735,41.388z"/>
	</g>
	<path fill="#F16823" d="M50.084,55.194c-3.736-1.852-6.581-0.787-7.095,0.404c-0.513-1.191-3.357-2.256-7.095-0.404
		c-4.548,2.255-3.59,6.305-3.59,6.305s0.071-1.128,1.756-1.962c1.686-0.835,4.088,0.626,6.446-0.542
		c0.673-0.334,1.592-0.901,2.473-2.63c0.004-0.007,0.006-0.014,0.01-0.021c0.004,0.007,0.007,0.015,0.01,0.021
		c0.882,1.729,1.8,2.296,2.474,2.63c2.358,1.169,4.762-0.292,6.446,0.542s1.755,1.962,1.755,1.962S54.632,57.449,50.084,55.194z"/>
</g>
<path fill="#A23A22" d="M139.178,79.752c-2.133-2.689-9.299-4.369-16.393-6.764c-7.096-2.39-8.775-3.221-8.775-3.221l-0.068-5.518
	c0,0,2.658-1.646,3.482-6.833c1.664,0.391,3.408-2.015,3.502-3.271c0.094-1.221-0.229-4.601-2.258-4.254
	c0.416-2.543,0.715-4.832,0.572-6.045c-0.531-4.421-5.914-9.097-14.189-9.097s-13.658,4.676-14.185,9.097
	c-0.147,1.213,0.151,3.502,0.565,6.045c-2.029-0.347-2.35,3.033-2.256,4.254c0.094,1.257,1.836,3.662,3.5,3.271
	c0.824,5.187,3.482,6.833,3.482,6.833l-0.066,5.518c0,0-1.682,0.831-8.775,3.221c-7.096,2.395-14.262,4.074-16.394,6.764
	c-1.913,2.416-1.337,14.008-1.337,14.008h35.464h35.466C140.516,93.76,141.09,82.168,139.178,79.752z"/>
<g>
	<path fill="none" stroke="#000000" stroke-width="2" stroke-miterlimit="10" d="M88.552,73.039"/>
</g>
<ellipse cx="105.05" cy="74" rx="12.95" ry="7.412"/>
<g>
	
		<ellipse fill="#231F20" stroke="#FFFFFF" stroke-width="2" stroke-miterlimit="10" cx="104.604" cy="55.597" rx="16.986" ry="20.848"/>
	<path fill="#F16823" d="M104.604,47.645c7.586,0,14.306,3.075,18.447,7.803c0.369-1.677,0.645-3.531,0.645-5.288
		c0-11.555-7.815-20.923-17.457-20.923H102.9c-9.643,0-17.834,9.406-17.834,20.962c0,1.573,0.442,3.379,0.961,5.398
		C90.157,50.785,96.938,47.645,104.604,47.645z"/>
	
		<ellipse transform="matrix(-0.5325 0.8464 -0.8464 -0.5325 182.0918 -31.4199)" fill="#FFFFFF" cx="99.723" cy="34.578" rx="1.657" ry="2.647"/>
	
		<ellipse transform="matrix(-0.5325 -0.8464 0.8464 -0.5325 137.906 145.3242)" fill="#FFFFFF" cx="109.083" cy="34.58" rx="1.657" ry="2.646"/>
	<path fill="none" stroke="#FFFFFF" stroke-width="2" stroke-miterlimit="10" d="M97.938,74.996
		c5.393,1.119,9.148,4.977,8.394,8.613"/>
</g>
<g>
	<g>
		<path fill="#E6ECA1" stroke="#000000" stroke-width="2" stroke-miterlimit="10" d="M106.14,99.335
			c-2.164-2.533-9.437-4.115-16.637-6.373c-7.201-2.252-8.907-3.035-8.907-3.035l-0.067-5.199c0,0,2.697-1.551,3.535-6.438
			c1.688,0.367,3.457-1.898,3.553-3.083c0.095-1.149-0.23-4.336-2.29-4.009c0.421-2.396,0.725-4.553,0.579-5.696
			c-0.539-4.165-6.002-8.572-14.4-8.572c-8.399,0-13.862,4.407-14.396,8.572c-0.148,1.144,0.153,3.301,0.575,5.696
			c-2.06-0.327-2.385,2.859-2.291,4.009c0.096,1.185,1.865,3.45,3.553,3.083c0.838,4.887,3.535,6.438,3.535,6.438l-0.068,5.199
			c0,0-1.705,0.783-8.906,3.035c-7.2,2.258-14.473,3.84-16.636,6.373c-1.942,2.277-1.358,13.201-1.358,13.201h35.993h35.992
			C107.496,112.536,108.08,101.612,106.14,99.335z"/>
		<line fill="none" stroke="#000000" stroke-width="2" stroke-miterlimit="10" x1="71.504" y1="104.753" x2="71.504" y2="112.536"/>
		<g>
			
				<ellipse fill="#FFFFFF" stroke="#231F20" stroke-width="2" stroke-miterlimit="10" cx="71.504" cy="81.746" rx="17.239" ry="23.007"/>
			<g>
				<path fill="#FFFFFF" d="M73.163,55.101h-3.39c-9.784,0-18.1,9.546-18.1,21.274c0,1.784,0.561,3.86,1.162,6.206
					c1.321-3.225,3.684-6.008,6.725-8.038c2.791,0.658,7.004,1.078,11.717,1.078c4.822,0,9.119-0.438,11.906-1.125
					c3.068,2.06,5.459,4.89,6.829,8.125c0.479-1.925,0.867-4.176,0.867-6.286C90.88,64.608,82.948,55.101,73.163,55.101z"/>
				<path d="M88.899,66.568c-1.953,2.535-5.869,4.267-10.389,4.267c-1.043,0-2.055-0.094-3.02-0.268
					c5.002-0.901,8.687-3.983,8.687-7.649c0-3.502-3.364-6.471-8.024-7.514c-0.764-0.155-1.543-0.252-2.336-0.287l-2.404,9.816
					l-2.659-9.796c-0.378,0.025-0.754,0.065-1.125,0.119c0.025,0.004,0.051,0.008,0.077,0.012c-5.001,0.901-8.687,3.983-8.687,7.649
					s3.686,6.749,8.687,7.649c-0.964,0.173-1.975,0.268-3.021,0.268c-4.788,0-8.902-1.947-10.715-4.732
					c-1.457,3.047-2.296,6.549-2.296,10.272c0,1.784,0.561,3.86,1.162,6.206c1.321-3.226,3.684-6.008,6.725-8.038
					c2.791,0.658,7.004,1.078,11.717,1.078c4.823,0,9.118-0.439,11.905-1.125c3.069,2.061,5.461,4.891,6.83,8.125
					c0.479-1.925,0.867-4.176,0.867-6.286C90.88,72.812,90.164,69.492,88.899,66.568z"/>
				<path fill="none" stroke="#020202" stroke-width="2" stroke-miterlimit="10" d="M73.163,55.101h-3.39
					c-9.784,0-18.1,9.546-18.1,21.274c0,1.784,0.561,3.86,1.162,6.206c1.321-3.225,3.684-6.008,6.725-8.038
					c2.791,0.658,7.004,1.078,11.717,1.078c4.822,0,9.119-0.438,11.906-1.125c3.068,2.06,5.461,4.89,6.829,8.125
					c0.479-1.925,0.867-4.176,0.867-6.286C90.88,64.608,82.948,55.101,73.163,55.101z"/>
			</g>
			<path fill="#F16823" d="M86.72,82.123c-2.222,1.248-8.193,2.142-15.216,2.142c-7.022,0-12.995-0.894-15.216-2.142
				c-0.003,0.082-0.005,0.164-0.005,0.246c0,4.828,5.257,8.835,12.457,9.606c0.04-2.381,1.39-4.289,2.764-4.289
				s2.724,1.908,2.765,4.289c7.199-0.771,12.457-4.778,12.457-9.606C86.726,82.287,86.724,82.205,86.72,82.123z"/>
		</g>
	</g>
	<path d="M88.874,85.981c-0.327,3.68-1.248,6.923-2.619,9.45c0.201,2.069,0.206,4.185-0.032,6.285
		c-0.925,8.143-5.09,13.63-10.149,14.31c1.837,1.452,3.835,2.299,5.86,2.402l3.032-4.301l-0.326,3.979
		c6.225-1.869,9.818-11.201,8.097-21.579C92.067,92.5,90.686,88.89,88.874,85.981z"/>
</g>
</svg>
