<?xml version="1.0" encoding="utf-8"?>
<!-- Generator: Adobe Illustrator 16.0.0, SVG Export Plug-In . SVG Version: 6.00 Build 0)  -->
<!DOCTYPE svg PUBLIC "-//W3C//DTD SVG 1.1//EN" "http://www.w3.org/Graphics/SVG/1.1/DTD/svg11.dtd">
<svg version="1.1" id="Layer_1" xmlns="http://www.w3.org/2000/svg" xmlns:xlink="http://www.w3.org/1999/xlink" x="0px" y="0px"
	 width="15.809px" height="15.333px" viewBox="0 0 15.809 15.333" enable-background="new 0 0 15.809 15.333" xml:space="preserve">
<g id="_x39_Aj4Fx.tif">
</g>
<g>
	<path fill="#4D4D4D" d="M12.539,14.09C12.029,14.2,8.6,14.06,5.81,10.911C2.85,7.57,3.16,3.8,3.27,3.57
		C3.499,3.12,3.99,2.63,4.62,2.24C4.7,2.179,4.801,2.139,4.9,2.12c0.41-0.08,0.79,0.17,1.04,0.33l0.13,0.08
		C6.42,2.73,6.85,4.99,6.83,5.27C6.81,5.589,6.46,5.91,5.61,6.66c0.25,0.85,1,2,1.601,2.67c0.551,0.629,1.74,1.689,2.591,2.06
		c0.729-0.649,1.1-0.97,1.399-1.04c0.05,0,0.09-0.01,0.13-0.01c0.279,0.021,2.471,0.72,2.63,1.09l0.061,0.141
		c0.16,0.33,0.431,0.881,0.061,1.34c-0.471,0.57-1.011,1-1.489,1.17L12.539,14.09z"/>
	<path fill="#4D4D4D" d="M4.879,2.021C4.769,2.05,4.659,2.09,4.559,2.15c-0.3,0.189-1.04,0.699-1.38,1.37
		c-0.2,0.42-0.3,4.229,2.56,7.46c2.82,3.181,6.301,3.319,6.82,3.21h0.021l0.051-0.011c0.699-0.261,1.3-0.931,1.52-1.21
		c0.42-0.51,0.12-1.12-0.04-1.449c-0.02-0.051-0.04-0.091-0.06-0.131c-0.19-0.449-2.521-1.141-2.71-1.148
		c-0.051,0-0.102,0-0.16,0.01c-0.32,0.069-0.66,0.369-1.4,1.021C8.95,10.89,7.82,9.872,7.28,9.26C6.71,8.611,5.99,7.521,5.73,6.7
		c0.83-0.74,1.181-1.07,1.2-1.43c0.021-0.19-0.38-2.58-0.8-2.82L5.999,2.37C5.729,2.19,5.329,1.93,4.879,2.021z M4.918,2.22
		c0.439-0.09,0.87,0.271,1.101,0.4c0.28,0.16,0.729,2.35,0.71,2.64c-0.021,0.29-0.399,0.63-1.24,1.37
		c0.24,0.88,1.03,2.08,1.642,2.771c0.608,0.689,1.84,1.77,2.688,2.109c0.74-0.66,1.131-1,1.4-1.061c0.04,0,0.069-0.01,0.109,0
		c0.279,0.01,2.409,0.721,2.529,1.02c0.13,0.291,0.53,0.892,0.141,1.371c-0.391,0.49-0.931,0.959-1.439,1.141l-0.04,0.01
		c-0.46,0.1-3.87-0.039-6.63-3.15c-2.84-3.199-2.67-6.938-2.521-7.219c0.239-0.49,0.779-0.97,1.3-1.3
		C4.749,2.271,4.839,2.24,4.918,2.22z"/>
</g>
</svg>
