<?xml version="1.0" encoding="utf-8"?>
<!-- Generator: Adobe Illustrator 16.0.0, SVG Export Plug-In . SVG Version: 6.00 Build 0)  -->
<!DOCTYPE svg PUBLIC "-//W3C//DTD SVG 1.1//EN" "http://www.w3.org/Graphics/SVG/1.1/DTD/svg11.dtd">
<svg version="1.1" id="Layer_1" xmlns="http://www.w3.org/2000/svg" xmlns:xlink="http://www.w3.org/1999/xlink" x="0px" y="0px"
	 width="10.66px" height="9.885px" viewBox="0 0 10.66 9.885" enable-background="new 0 0 10.66 9.885" xml:space="preserve">
<g id="_x39_Aj4Fx.tif">
</g>
<path fill="#FFFFFF" d="M2.441,4.413c0-1.25,1.02-2.271,2.27-2.271c1.26,0,2.27,1.021,2.27,2.271s-1.01,2.27-2.27,2.27
	C3.461,6.683,2.441,5.663,2.441,4.413z M9.012,7.463L7.57,6.022c0.271-0.479,0.422-1.02,0.422-1.608c0-1.811-1.471-3.28-3.281-3.28
	c-1.8,0-3.28,1.47-3.28,3.28c0,1.812,1.48,3.278,3.28,3.278c0.68,0,1.311-0.209,1.83-0.56l1.4,1.4c0.149,0.149,0.34,0.22,0.529,0.22
	c0.2,0,0.391-0.07,0.541-0.22C9.3,8.233,9.3,7.763,9.012,7.463z"/>
</svg>
