<?xml version="1.0" encoding="utf-8"?>
<!-- Generator: Adobe Illustrator 16.0.0, SVG Export Plug-In . SVG Version: 6.00 Build 0)  -->
<!DOCTYPE svg PUBLIC "-//W3C//DTD SVG 1.1//EN" "http://www.w3.org/Graphics/SVG/1.1/DTD/svg11.dtd">
<svg version="1.1" id="Layer_1" xmlns="http://www.w3.org/2000/svg" xmlns:xlink="http://www.w3.org/1999/xlink" x="0px" y="0px"
	 width="144px" height="144px" viewBox="0 0 144 144" enable-background="new 0 0 144 144" xml:space="preserve">
<circle fill="#454545" cx="74.88" cy="72" r="59.188"/>
<g id="_x39_Aj4Fx.tif">
</g>
<path fill="#A53923" d="M53.036,43.908l0.015,0.044v0.043L53.036,43.908z M49.954,49.741c1.498,1.281,2.606,4.594,4.392,5.602
	c0.072,0.215,0.144,0.431,0.23,0.619l-3.124,48.485l14.011-0.604l-2.247-47.307c2.072-3.24,2.462-8.28,3.124-11.578
	c0.26-1.281,0.489-2.116,0.404-2.75c1.641-2.966,3.944-6.897,3.211-9.446c-1.657,0.417-3.097,4.335-3.976,5.933
	c-0.129,0.216-0.316,0.662-0.547,1.195c-0.648,0.043-1.311,0.058-1.944,0.028l-0.229-0.058c0.705-3.815,2.852-7.444,3.355-11.26
	c-2.751-1.224-3.27,4.275-3.932,5.918c-0.23,0.562-1.324,3.139-1.613,4.838c-0.432-0.071-0.863-0.114-1.296-0.144
	c-0.114-2.578-0.331-5.068-0.331-7.675c0-2.664-1.915-7.013-2.98-2.391c-0.591,2.533,0.374,5.934,0.374,8.654
	c0,0.259,0.029,0.604,0.102,0.994c-0.778-0.217-1.57-0.461-2.349-0.721c-1.512-2.822-2.591-7.271-3.57-9.489
	c-0.316,0-1.008,0.145-1.325,0.303c-0.878,3.023,1.714,9.618,3.24,14.688v0.504c0.029,0.071,0.058,0.144,0.102,0.244
	c-0.015,0.82,0.058,1.685,0.144,2.577c-0.188,0.836-0.807,1.253-2.405,0.836c-2.203-0.562-3.312-2.708-5.831-2.708
	C44.655,47.941,48.241,48.301,49.954,49.741z"/>
<path fill="#32190E" d="M94.493,51.383l0.014,0.043v0.028L94.493,51.383z M91.715,56.696c1.35,1.151,2.344,4.161,3.959,5.083
	c0.057,0.202,0.129,0.39,0.203,0.562l-2.811,44.079l12.615-0.549l-2.027-42.997c1.884-2.967,2.215-7.531,2.818-10.527
	c0.23-1.166,0.435-1.929,0.375-2.505c1.471-2.693,3.545-6.278,2.881-8.582c-1.48,0.374-2.779,3.931-3.571,5.385
	c-0.112,0.202-0.3,0.591-0.49,1.095c-0.604,0.043-1.179,0.043-1.755,0.029l-0.217-0.072c0.646-3.456,2.576-6.754,3.025-10.225
	c-2.479-1.123-2.938,3.874-3.544,5.371c-0.2,0.504-1.18,2.865-1.44,4.393c-0.389-0.058-0.789-0.101-1.176-0.115
	c-0.09-2.347-0.307-4.623-0.291-6.984c0-2.418-1.729-6.364-2.69-2.174c-0.534,2.305,0.345,5.4,0.328,7.877
	c0,0.23,0.044,0.547,0.101,0.906c-0.705-0.215-1.408-0.432-2.115-0.662c-1.354-2.576-2.336-6.623-3.211-8.626
	c-0.289-0.014-0.908,0.13-1.195,0.274c-0.793,2.75,1.541,8.74,2.924,13.349v0.461c0.014,0.058,0.044,0.13,0.086,0.23
	c-0.016,0.735,0.043,1.526,0.132,2.332c-0.174,0.763-0.735,1.138-2.16,0.763c-1.985-0.502-2.995-2.462-5.271-2.462
	C86.948,55.054,90.173,55.373,91.715,56.696z"/>
<path fill="#F16824" d="M43.084,43.117v-0.043l0.014-0.059L43.084,43.117z M52.574,44.355c-2.951,0-4.262,2.549-6.84,3.227
	c-1.858,0.474-2.591-0.015-2.808-1.009c0.101-1.051,0.188-2.088,0.172-3.053c0.045-0.116,0.087-0.217,0.103-0.288v-0.604
	c1.8-6.02,4.823-13.854,3.8-17.439c-0.374-0.201-1.18-0.375-1.54-0.375c-1.167,2.636-2.42,7.921-4.19,11.29
	c-0.907,0.288-1.829,0.591-2.75,0.85c0.087-0.475,0.13-0.878,0.13-1.18c-0.015-3.241,1.122-7.273,0.43-10.283
	c-1.252-5.486-3.5-0.317-3.485,2.837c0,3.097-0.258,6.062-0.388,9.115c-0.52,0.043-1.023,0.087-1.527,0.172
	c-0.332-2.001-1.627-5.082-1.886-5.744c-0.778-1.96-1.383-8.482-4.595-7.028c0.576,4.537,3.082,8.842,3.918,13.363l-0.26,0.087
	c-0.763,0.029-1.512,0.014-2.289-0.028c-0.26-0.649-0.49-1.182-0.635-1.44c-1.037-1.887-2.721-6.538-4.65-7.027
	c-0.864,3.023,1.829,7.689,3.744,11.203c-0.086,0.764,0.188,1.758,0.489,3.283c0.778,3.902,1.225,9.879,3.657,13.737l-2.635,56.188
	l16.417,0.707l-3.671-57.572c0.101-0.229,0.188-0.489,0.273-0.734c2.089-1.195,3.385-5.14,5.141-6.651
	C48.715,48.23,52.906,47.826,52.574,44.355z"/>
<path fill="#FCFBFA" d="M82.338,52.491v-0.043l0.016-0.044L82.338,52.491z M90.445,53.528c-2.506,0-3.629,2.146-5.832,2.721
	c-1.598,0.403-2.219-0.014-2.403-0.85c0.086-0.893,0.156-1.756,0.146-2.562c0.039-0.101,0.07-0.188,0.103-0.245v-0.504
	c1.524-5.068,4.115-11.679,3.237-14.702c-0.317-0.158-1.008-0.303-1.323-0.303c-0.979,2.218-2.062,6.667-3.57,9.504
	c-0.778,0.245-1.567,0.49-2.35,0.72c0.073-0.403,0.103-0.749,0.103-0.993c0-2.735,0.965-6.12,0.375-8.669
	c-1.066-4.607-2.981-0.259-2.981,2.391c0,2.606-0.214,5.112-0.328,7.69c-0.435,0.014-0.867,0.057-1.296,0.129
	c-0.289-1.686-1.383-4.276-1.613-4.839c-0.662-1.642-1.181-7.142-3.932-5.904c0.504,3.817,2.651,7.446,3.355,11.247l-0.229,0.072
	c-0.634,0.014-1.296,0.014-1.944-0.029c-0.23-0.547-0.417-0.992-0.547-1.209c-0.879-1.584-2.318-5.516-3.975-5.918
	c-0.734,2.549,1.569,6.479,3.211,9.432c-0.086,0.647,0.145,1.482,0.403,2.765c0.662,3.282,1.052,8.323,3.126,11.577l-2.247,47.305
	l14.011,0.59l-3.127-48.47c0.088-0.201,0.158-0.418,0.23-0.633c1.786-0.994,2.896-4.306,4.393-5.588
	C87.15,56.797,90.732,56.451,90.445,53.528z"/>
<path fill="#F16824" d="M105.133,55.804l0.018,0.043l-0.018,0.043V55.804z M102.039,61.65c1.51,1.282,2.62,4.594,4.406,5.603
	c0.07,0.215,0.143,0.416,0.231,0.62l-3.145,48.468l14.012-0.588l-2.246-47.306c2.086-3.255,2.461-8.279,3.125-11.578
	c0.261-1.282,0.49-2.117,0.418-2.751c1.644-2.967,3.943-6.898,3.199-9.447c-1.646,0.419-3.086,4.335-3.961,5.92
	c-0.134,0.229-0.332,0.662-0.554,1.209c-0.659,0.043-1.309,0.058-1.952,0.029l-0.218-0.071c0.705-3.803,2.853-7.431,3.34-11.247
	c-2.748-1.239-3.254,4.263-3.932,5.918c-0.215,0.548-1.309,3.14-1.598,4.824c-0.432-0.058-0.865-0.102-1.311-0.129
	c-0.103-2.578-0.33-5.084-0.33-7.69c0.014-2.649-1.9-6.998-2.98-2.391c-0.574,2.549,0.389,5.947,0.375,8.669
	c0,0.246,0.043,0.59,0.113,0.994c-0.789-0.23-1.57-0.476-2.346-0.721c-1.513-2.837-2.592-7.286-3.584-9.504
	c-0.306,0-0.994,0.145-1.312,0.316c-0.879,3.025,1.696,9.62,3.239,14.688v0.504c0.014,0.058,0.056,0.145,0.101,0.245
	c-0.028,0.807,0.043,1.686,0.144,2.578c-0.188,0.834-0.81,1.237-2.403,0.834c-2.203-0.561-3.328-2.721-5.849-2.721
	C96.754,59.851,100.338,60.195,102.039,61.65z"/>
</svg>
