<?xml version="1.0" encoding="utf-8"?>
<!-- Generator: Adobe Illustrator 16.0.0, SVG Export Plug-In . SVG Version: 6.00 Build 0)  -->
<!DOCTYPE svg PUBLIC "-//W3C//DTD SVG 1.1//EN" "http://www.w3.org/Graphics/SVG/1.1/DTD/svg11.dtd">
<svg version="1.1" id="Layer_1" xmlns="http://www.w3.org/2000/svg" xmlns:xlink="http://www.w3.org/1999/xlink" x="0px" y="0px"
	 width="144px" height="144px" viewBox="0 0 144 144" enable-background="new 0 0 144 144" xml:space="preserve">
<circle fill="#454545" cx="74.411" cy="73.686" r="59.188"/>
<g id="_x39_Aj4Fx.tif">
</g>
<path fill="#F16922" d="M71.035,51.502c0,0-27.82-2.218-29.275,5.66c-1.467,7.876,7.316,1.727,8.051,1.482
	c0.733-0.245-10.009,5.903-6.596,11.074c3.427,5.169,2.203,0.992,2.203,0.992s0.49,7.878,4.147,6.64
	c3.657-1.227,3.413-6.884,3.657-8.123c0.245-1.225-1.714,12.556,5.372,13.796c1.526-4.625,4.838-6.236,4.838-6.236
	s-11.852-7.66,4.306-13.564c12.442-2.951,11.102,19.541,4.508,17.582c1.54,2.533-1.7,4.68-1.7,4.68s22.798,0.564,11.46-22.404
	c-1.984-4.018,2.68-9.605,5.372-11.867c5.3-4.462,41.589-30.513,41.589-30.513h-24.523L76.637,44.85L71.035,51.502z"/>
<rect x="23.515" y="115.756" fill="#A23A22" width="83.75" height="12.098"/>
<rect x="107.266" y="99.41" fill="#32190E" width="9.647" height="28.439"/>
<polygon fill="#F26922" points="35.568,99.41 23.515,115.756 106.678,115.756 116.914,99.41 "/>
<rect x="48.816" y="104.854" fill="#E5EB9D" width="39.469" height="3.933"/>
<path fill="#FFFFFF" d="M57.76,81.93c0,4.262,3.455,7.719,7.703,7.719c4.263,0,7.719-3.457,7.719-7.719
	c0-4.248-3.457-7.703-7.719-7.703C61.215,74.227,57.76,77.682,57.76,81.93z M65.779,86.566h-0.46v-0.965
	c-0.662,0-1.138-0.174-1.454-0.533c-0.316-0.359-0.477-0.908-0.506-1.654l1.412-0.23c0.015,0.506,0.058,0.865,0.173,1.08
	c0.116,0.23,0.26,0.33,0.476,0.33c0.288,0,0.433-0.174,0.433-0.533c0-0.188-0.044-0.375-0.116-0.547
	c-0.071-0.156-0.158-0.303-0.259-0.418c-0.115-0.131-0.259-0.26-0.446-0.432l-0.662-0.562c-0.158-0.129-0.303-0.258-0.403-0.373
	c-0.101-0.102-0.202-0.246-0.303-0.389c-0.101-0.16-0.173-0.332-0.23-0.52c-0.044-0.199-0.073-0.402-0.073-0.633
	c0-0.562,0.174-1.021,0.506-1.354c0.33-0.33,0.792-0.519,1.367-0.562v-1.15h0.461v1.15c0.201,0,0.375,0.027,0.547,0.072
	c0.145,0.041,0.288,0.113,0.403,0.172c0.101,0.072,0.202,0.158,0.288,0.26c0.072,0.102,0.145,0.203,0.188,0.303
	c0.058,0.088,0.087,0.203,0.115,0.33c0.029,0.117,0.059,0.232,0.072,0.316c0.014,0.104,0.014,0.217,0.028,0.318l-1.44,0.188
	c0-0.133,0-0.243-0.014-0.328c0-0.09-0.015-0.19-0.015-0.29c-0.014-0.101-0.043-0.188-0.058-0.244
	c-0.014-0.058-0.043-0.115-0.086-0.172c-0.029-0.06-0.072-0.089-0.131-0.115c-0.057-0.031-0.114-0.031-0.186-0.031
	c-0.145,0-0.261,0.06-0.332,0.175c-0.072,0.129-0.115,0.26-0.115,0.416c0,0.146,0.015,0.272,0.058,0.394
	c0.029,0.112,0.087,0.229,0.173,0.342c0.086,0.103,0.159,0.188,0.217,0.248c0.057,0.056,0.143,0.144,0.272,0.26l0.634,0.562
	c0.173,0.157,0.331,0.315,0.447,0.459c0.129,0.146,0.244,0.317,0.359,0.506c0.115,0.187,0.201,0.389,0.259,0.604
	c0.073,0.231,0.101,0.461,0.101,0.721c0,0.504-0.158,0.937-0.475,1.298c-0.302,0.344-0.721,0.547-1.225,0.604V86.566z"/>
</svg>
