<?xml version="1.0" encoding="utf-8"?>
<!-- Generator: Adobe Illustrator 16.0.0, SVG Export Plug-In . SVG Version: 6.00 Build 0)  -->
<!DOCTYPE svg PUBLIC "-//W3C//DTD SVG 1.1//EN" "http://www.w3.org/Graphics/SVG/1.1/DTD/svg11.dtd">
<svg version="1.1" id="Layer_1" xmlns="http://www.w3.org/2000/svg" xmlns:xlink="http://www.w3.org/1999/xlink" x="0px" y="0px"
	 width="15.809px" height="15.184px" viewBox="0 0 15.809 15.184" enable-background="new 0 0 15.809 15.184" xml:space="preserve">
<g id="_x39_Aj4Fx.tif">
</g>
<g>
	<polygon fill="#4D4D4D" points="12.639,7.462 12.639,4.662 9.649,1.682 3.179,1.682 3.179,7.462 1.599,6.402 1.599,13.073 
		4.719,10.342 5.62,9.562 5.929,9.292 3.969,7.981 3.969,2.462 9.319,2.462 9.479,2.632 9.479,4.832 11.679,4.832 11.849,4.992 
		11.849,7.981 9.889,9.292 10.2,9.562 11.099,10.342 14.209,13.073 14.209,6.402 	"/>
	<polygon fill="#4D4D4D" points="9,9.562 6.819,9.562 5.919,10.342 2.309,13.502 13.5,13.502 9.899,10.342 	"/>
</g>
</svg>
