<?xml version="1.0" encoding="utf-8"?>
<!-- Generator: Adobe Illustrator 16.0.0, SVG Export Plug-In . SVG Version: 6.00 Build 0)  -->
<!DOCTYPE svg PUBLIC "-//W3C//DTD SVG 1.1//EN" "http://www.w3.org/Graphics/SVG/1.1/DTD/svg11.dtd">
<svg version="1.1" id="Layer_1" xmlns="http://www.w3.org/2000/svg" xmlns:xlink="http://www.w3.org/1999/xlink" x="0px" y="0px"
	 width="91.9px" height="58.07px" viewBox="0 0 91.9 58.07" enable-background="new 0 0 91.9 58.07" xml:space="preserve">
<g id="_x39_Aj4Fx.tif">
</g>
<g>
	
		<path fill="#F06724" stroke="#4D4D4D" stroke-width="0.7874" stroke-linecap="round" stroke-linejoin="round" stroke-miterlimit="10" d="
		M17.785,45.215"/>
	<g>
		<g>
			
				<path fill="#4D4D4D" stroke="#F06724" stroke-width="0.3937" stroke-linecap="round" stroke-linejoin="round" stroke-miterlimit="10" d="
				M55.397,14.037l1-1.851l-2.14-2.29l-4.472,0.109l-0.028,1.32l3.92-0.091l0.818,0.859l-0.88,1.73l1.25,4.18l-16.03,0.38
				l-0.26-0.77c1.28-0.201,3.48-1.071,4-1.561c0.521-0.479,0.049-0.91-0.56-0.91c-3.17-0.069-7.871-0.23-8.771-0.21
				c-0.88,0.021-0.969,0.48-0.358,1.141c0.608,0.66,1.148,1.25,3.42,1.56l0.66,1.69l-3.682,4.93c-1.81-1.081-3.989-1.61-6.09-1.561
				c-6.31,0.15-11.33,5.571-11.18,12.061c0.148,6.491,5.419,11.661,11.729,11.521c5.182-0.13,9.66-3.92,10.88-9.04l3.5,0.561
				c0.16,0.419,0.511,0.74,0.94,0.979l-0.56,3.051l-0.79,0.021l-0.04,0.819l2.51,0.069l-0.021-0.88l-0.608,0.011l0.68-3.061
				c1.13-0.211,1.7-1.221,1.34-2.2l11.07-13.529l0.55,1.409c-2.72,2.311-4.29,5.801-4.2,9.391c0.151,6.5,5.41,11.67,11.722,11.521
				c6.3-0.15,11.318-5.57,11.17-12.061c-0.151-6.489-5.42-11.67-11.722-11.51c-1.84,0.04-3.699,0.54-5.27,1.449L55.397,14.037z
				 M27.684,44.026c-5.101,0.12-9.37-4.06-9.49-9.319c-0.12-5.261,3.941-9.65,9.05-9.771c1.63-0.04,3.521,0.319,4.92,1.109l-4.88,7
				c-0.608,0.02-1.13,0.601-1.12,1.29c0.021,0.689,0.58,1.25,1.262,1.229c0.188,0,0.38-0.061,0.54-0.141l8.46,1.46
				C35.474,40.936,31.814,43.936,27.684,44.026z M45.255,33.626l0.09-1.51l0.55-0.021l0.04-0.819l-2.142,0.06l-0.038,0.88
				l0.488-0.021l-0.148,1.399l-4.57-13.188l16-0.36l0.27,0.78C55.734,20.885,45.255,33.625,45.255,33.626z M38.914,34.215
				c-0.08-3.271-1.179-6.42-4.028-9l2.818-3.649l4.82,14.011l-3.65-0.29C38.885,34.996,38.926,34.536,38.914,34.215z M28.845,33.716
				l4.778-6.72c2.62,2.239,3,4.989,3.08,7.859L28.845,33.716z M64.385,34.683c0.679-0.011,1.21-0.591,1.198-1.29
				c-0.019-0.669-0.549-1.22-1.229-1.229c-2.85-2.25-3.771-3.759-4.75-6.689c1.32-0.85,2.979-1.37,4.61-1.41
				c5.108-0.12,9.368,4.06,9.488,9.319c0.12,5.261-3.938,9.651-9.04,9.771c-5.108,0.119-9.37-4.07-9.5-9.33
				c-0.06-2.65,0.972-5.24,2.83-7.07c1.28,3.33,3,4.96,5.19,6.67C63.195,34.146,63.716,34.706,64.385,34.683z"/>
		</g>
	</g>
	
		<line fill="none" stroke="#4D4D4D" stroke-width="1.1811" stroke-linecap="round" stroke-linejoin="round" stroke-miterlimit="10" x1="64.555" y1="43.476" x2="64.204" y2="23.656"/>
	
		<line fill="none" stroke="#4D4D4D" stroke-width="1.1811" stroke-linecap="round" stroke-linejoin="round" stroke-miterlimit="10" x1="54.764" y1="33.945" x2="74.014" y2="33.594"/>
	
		<line fill="none" stroke="#4D4D4D" stroke-width="1.1811" stroke-linecap="round" stroke-linejoin="round" stroke-miterlimit="10" x1="71.314" y1="40.516" x2="61.064" y2="30.536"/>
	
		<line fill="none" stroke="#4D4D4D" stroke-width="1.1811" stroke-linecap="round" stroke-linejoin="round" stroke-miterlimit="10" x1="57.704" y1="40.755" x2="71.075" y2="26.786"/>
	
		<line fill="none" stroke="#4D4D4D" stroke-width="1.1811" stroke-linecap="round" stroke-linejoin="round" stroke-miterlimit="10" x1="27.755" y1="44.135" x2="27.414" y2="24.726"/>
	
		<line fill="none" stroke="#4D4D4D" stroke-width="1.1811" stroke-linecap="round" stroke-linejoin="round" stroke-miterlimit="10" x1="17.954" y1="34.594" x2="27.716" y2="34.425"/>
	
		<line fill="none" stroke="#4D4D4D" stroke-width="1.1811" stroke-linecap="round" stroke-linejoin="round" stroke-miterlimit="10" x1="20.655" y1="27.686" x2="34.505" y2="41.175"/>
	
		<line fill="none" stroke="#4D4D4D" stroke-width="1.1811" stroke-linecap="round" stroke-linejoin="round" stroke-miterlimit="10" x1="20.894" y1="41.416" x2="28.084" y2="33.906"/>
</g>
</svg>
